<svg width="72" height="72" viewBox="0 0 72 72" fill="none" xmlns="http://www.w3.org/2000/svg">
<rect width="72" height="72" fill="white"/>
<ellipse cx="41.8504" cy="53.3182" rx="14.1636" ry="4.67468" fill="#FFF6E8"/>
<path d="M43.4329 14.6968C55.0343 12.7959 62.4932 13.7445 62.0413 29.6147C61.7228 40.7984 55.4114 52.6273 40.5706 52.6274C34.917 52.6274 29.6381 49.9137 25.6526 45.9897C25.3279 46.2601 24.9802 46.5126 24.6097 46.7407C23.2843 47.5564 21.7284 48.0565 20.1018 48.1899C18.4752 48.3234 16.8361 48.0858 15.3528 47.5005C13.8695 46.9151 12.5949 46.0031 11.6604 44.8589C10.726 43.7147 10.1647 42.379 10.0345 40.9888C9.90424 39.5985 10.2096 38.2031 10.9192 36.9468C11.6289 35.6905 12.718 34.6184 14.0735 33.8394C15.4051 33.0741 16.9472 32.619 18.5472 32.519C18.4651 31.8626 18.4222 31.2107 18.4222 30.5669C18.4226 21.8384 33.2629 16.3632 43.4329 14.6968ZM18.9163 36.2925C18.0706 36.3385 17.2539 36.576 16.5511 36.98C15.8484 37.3839 15.2842 37.94 14.9163 38.5913C14.5483 39.2428 14.3898 39.9661 14.4573 40.687C14.5248 41.4079 14.8156 42.1006 15.3001 42.6938C15.7846 43.2871 16.446 43.7595 17.2151 44.063C17.9841 44.3664 18.8337 44.4905 19.677 44.4214C20.5205 44.3522 21.3276 44.0925 22.0149 43.6694C22.372 43.4497 22.6888 43.1886 22.9602 42.897C20.8132 40.0095 19.3125 36.7647 18.7132 33.5776L18.9163 36.2925ZM54.7727 18.8501C54.0069 16.1401 45.8101 16.0841 36.4651 18.7251C27.1204 21.3661 20.1655 25.7036 20.9309 28.4136C21.6969 31.1235 29.8937 31.1795 39.2386 28.5386C48.583 25.8977 55.5377 21.5601 54.7727 18.8501Z" fill="#3C2911"/>
<path d="M42.5376 15.8401C53.6266 14.0556 60.7556 14.9465 60.3237 29.845C60.0193 40.3438 53.9873 51.4482 39.8023 51.4485C34.5913 51.4484 29.7133 49.0797 25.9556 45.6077C25.8244 45.7025 25.6903 45.7949 25.5523 45.8831C24.3613 46.6435 22.9615 47.125 21.4898 47.2815C20.0179 47.438 18.5241 47.2638 17.1538 46.7756C15.7837 46.2875 14.584 45.5022 13.6714 44.4963C12.7588 43.4903 12.1647 42.2978 11.9468 41.0354C11.7289 39.7729 11.8947 38.4831 12.4282 37.2922C12.9617 36.1016 13.8447 35.0502 14.9907 34.2405C16.0847 33.4676 17.3827 32.9397 18.7691 32.7034C18.6793 32.0428 18.6314 31.3868 18.6314 30.7395C18.6315 22.5453 32.8167 17.4046 42.5376 15.8401ZM19.6235 36.1848C18.8854 36.3029 18.1935 36.5792 17.6128 36.9895C17.0185 37.4094 16.5603 37.9551 16.2837 38.5725C16.0072 39.1899 15.9217 39.8585 16.0347 40.5129C16.1477 41.1675 16.456 41.7862 16.9292 42.3079C17.4024 42.8293 18.0246 43.2364 18.7349 43.4895C19.4453 43.7426 20.2198 43.8333 20.9829 43.7522C21.7461 43.6711 22.4718 43.4209 23.0894 43.0266C23.1866 42.9645 23.279 42.8968 23.3696 42.8284C21.7243 40.7689 20.4379 38.4948 19.6235 36.1848ZM53.5493 19.7444C52.8354 17.1989 45.1999 17.1463 36.4946 19.6272C27.7894 22.1081 21.3108 26.183 22.0239 28.7288C22.7374 31.2745 30.3731 31.3269 39.0786 28.8459C47.784 26.365 54.2628 22.2901 53.5493 19.7444Z" fill="white"/>
<path d="M41.4788 16.7059C52.2234 15.0345 59.1307 15.8683 58.7122 29.8221C58.4171 39.6553 52.5721 50.0564 38.8275 50.0565C33.9364 50.0565 29.3482 47.9739 25.7562 44.8875C24.7035 45.5185 23.491 45.9314 22.2142 46.0819C20.8485 46.2428 19.457 46.1023 18.1722 45.6756C16.8875 45.2489 15.7514 44.5497 14.8724 43.6434C13.9934 42.737 13.3998 41.6538 13.1487 40.4969C12.8977 39.3399 12.9973 38.1471 13.4378 37.0321C13.8783 35.9172 14.6449 34.9168 15.6653 34.1258C16.4819 33.493 17.4401 33.0131 18.4778 32.7088C18.3705 32.0193 18.3148 31.3346 18.3148 30.66C18.3148 22.9851 32.0597 18.1711 41.4788 16.7059ZM19.3597 35.9832C18.9689 36.136 18.6061 36.3392 18.2855 36.5877C17.7563 36.9979 17.3586 37.5165 17.1302 38.0946C16.9018 38.6727 16.8506 39.2915 16.9808 39.8914C17.111 40.4912 17.4186 41.0524 17.8743 41.5223C18.3301 41.9923 18.9191 42.3557 19.5853 42.577C20.2514 42.7981 20.9729 42.8704 21.681 42.7869C22.22 42.7234 22.737 42.5696 23.2054 42.3387C21.5235 40.3831 20.2026 38.2037 19.3597 35.9832ZM52.3294 20.3514C51.6567 17.9711 44.4573 17.9214 36.2493 20.241C28.0412 22.5608 21.9321 26.3715 22.6048 28.7518C23.2782 31.1316 30.4773 31.1807 38.6849 28.8612C46.8923 26.5416 53.0009 22.7317 52.3294 20.3514Z" fill="#3C2911"/>
<g filter="url(#filter0_d_340_2092)">
<path d="M49.1994 37.3414C49.1747 37.3154 49.1497 37.2883 49.1247 37.2601C46.9714 34.9552 44.7451 35.8928 43.8479 36.6927C43.8334 36.706 43.8189 36.7193 43.8042 36.7325C43.8184 36.7193 43.8329 36.706 43.8479 36.6927C45.9443 34.7604 45.0561 32.3583 44.3442 31.393C46.2491 33.7268 48.7435 32.6882 49.7526 31.8773C47.2335 33.9334 48.244 36.2681 49.1247 37.2601C49.1496 37.2868 49.1745 37.3139 49.1994 37.3414Z" fill="white"/>
</g>
<g filter="url(#filter1_d_340_2092)">
<path d="M45.298 40.3029C45.9947 40.0692 46.7764 40.4531 46.7664 41.1878C46.7604 41.6266 46.6783 42.0509 46.5248 42.4366C46.3713 42.8224 46.1493 43.1619 45.8716 43.436C45.5939 43.71 45.2659 43.9132 44.9062 44.0338C44.5466 44.1544 44.1624 44.1902 43.7757 44.139C43.3889 44.0879 43.007 43.9508 42.652 43.7357C42.2969 43.5205 41.9755 43.2315 41.7062 42.8851C41.2552 42.305 41.6473 41.5274 42.344 41.2938L43.821 40.7983L45.298 40.3029Z" fill="white"/>
</g>
<g filter="url(#filter2_d_340_2092)">
<path d="M37.9309 40.4083C37.9061 40.3823 37.8812 40.3552 37.8561 40.327C35.7028 38.0221 33.4766 38.9597 32.5793 39.7596C32.5649 39.7729 32.5503 39.7861 32.5356 39.7994C32.5498 39.7862 32.5644 39.7729 32.5793 39.7596C34.6757 37.8273 33.7875 35.4252 33.0756 34.4599C34.9805 36.7937 37.4749 35.7551 38.484 34.9441C35.965 37.0003 36.9755 39.335 37.8561 40.327C37.8811 40.3536 37.906 40.3808 37.9309 40.4083Z" fill="white"/>
</g>
<defs>
<filter id="filter0_d_340_2092" x="42.879" y="30.7762" width="7.79874" height="7.79874" filterUnits="userSpaceOnUse" color-interpolation-filters="sRGB">
<feFlood flood-opacity="0" result="BackgroundImageFix"/>
<feColorMatrix in="SourceAlpha" type="matrix" values="0 0 0 0 0 0 0 0 0 0 0 0 0 0 0 0 0 0 127 0" result="hardAlpha"/>
<feOffset dy="0.308389"/>
<feGaussianBlur stdDeviation="0.462583"/>
<feComposite in2="hardAlpha" operator="out"/>
<feColorMatrix type="matrix" values="0 0 0 0 0 0 0 0 0 0 0 0 0 0 0 0 0 0 0.1 0"/>
<feBlend mode="normal" in2="BackgroundImageFix" result="effect1_dropShadow_340_2092"/>
<feBlend mode="normal" in="SourceGraphic" in2="effect1_dropShadow_340_2092" result="shape"/>
</filter>
<filter id="filter1_d_340_2092" x="40.5882" y="39.6179" width="7.10343" height="5.77732" filterUnits="userSpaceOnUse" color-interpolation-filters="sRGB">
<feFlood flood-opacity="0" result="BackgroundImageFix"/>
<feColorMatrix in="SourceAlpha" type="matrix" values="0 0 0 0 0 0 0 0 0 0 0 0 0 0 0 0 0 0 127 0" result="hardAlpha"/>
<feOffset dy="0.308389"/>
<feGaussianBlur stdDeviation="0.462583"/>
<feComposite in2="hardAlpha" operator="out"/>
<feColorMatrix type="matrix" values="0 0 0 0 0 0 0 0 0 0 0 0 0 0 0 0 0 0 0.1 0"/>
<feBlend mode="normal" in2="BackgroundImageFix" result="effect1_dropShadow_340_2092"/>
<feBlend mode="normal" in="SourceGraphic" in2="effect1_dropShadow_340_2092" result="shape"/>
</filter>
<filter id="filter2_d_340_2092" x="31.6105" y="33.8431" width="7.79874" height="7.79874" filterUnits="userSpaceOnUse" color-interpolation-filters="sRGB">
<feFlood flood-opacity="0" result="BackgroundImageFix"/>
<feColorMatrix in="SourceAlpha" type="matrix" values="0 0 0 0 0 0 0 0 0 0 0 0 0 0 0 0 0 0 127 0" result="hardAlpha"/>
<feOffset dy="0.308389"/>
<feGaussianBlur stdDeviation="0.462583"/>
<feComposite in2="hardAlpha" operator="out"/>
<feColorMatrix type="matrix" values="0 0 0 0 0 0 0 0 0 0 0 0 0 0 0 0 0 0 0.1 0"/>
<feBlend mode="normal" in2="BackgroundImageFix" result="effect1_dropShadow_340_2092"/>
<feBlend mode="normal" in="SourceGraphic" in2="effect1_dropShadow_340_2092" result="shape"/>
</filter>
</defs>
</svg>
